<svg viewBox="0 0 120 87" xmlns="http://www.w3.org/2000/svg"><g fill="#305b6b"><path opacity=".97" d="M91.39 0H120v87H.31C-.12 68.06.24 49.11.13 30.17l2.06-.01c.02 18.28-.02 36.56.02 54.85 38.55-.02 77.11-.13 115.66.06.08-27.65 0-55.3.04-82.94-8.79-.02-17.59-.01-26.39-.01-.03-.53-.1-1.59-.13-2.12z"/><path opacity=".97" d="M33.93 20.75c1.29 0 2.57 0 3.85-.01-.03 6.45-.03 12.91-.01 19.36 6.77.03 13.54-.06 20.3.05v3.33c-8.04.06-16.09.06-24.14 0V20.75z"/><path opacity=".97" d="M44.08 20.74c1.27 0 2.53.01 3.8.01-.03 5.92-.05 11.84.02 17.76-1.28 0-2.56 0-3.84.01.07-5.93.05-11.85.02-17.78zM54.13 20.75h3.94v17.77c-1.32-.01-2.64-.01-3.96-.01.07-5.92.05-11.84.02-17.76zM67.5 20.74c4.22-.01 8.44-.01 12.66 0-.03.82-.07 2.45-.1 3.27-4.18.12-8.36.06-12.54-.1-.01-.79-.01-2.37-.02-3.17zM96.58 20.76h3.87c-.02 7.57-.03 15.14.01 22.71-.97.01-2.91.01-3.89.01.04-7.57.02-15.15.01-22.72zM86.53 31.05c.18-4.4 4.02-7.26 7.99-8.18.17.77.5 2.3.67 3.06-2.64.92-5.29 2.93-4.85 6.09-.49 3.19 2 5.5 4.84 6.3l-.52 2.88c-5.01-.44-8.94-5.09-8.13-10.15zM102.48 22.88c4.33.9 8.22 4.44 8.04 9.13.32 4.8-3.6 8.73-8.2 9.26-.12-.75-.35-2.25-.46-3 2.79-.81 5.4-3.09 4.89-6.29.44-3.16-2.37-5.09-4.95-6.05l.68-3.05zM67.5 25.55c.98.01 2.94.01 3.92.01l-.03 4.3c2.91.02 5.82.02 8.73.03 0 .8-.01 2.41-.01 3.21-2.9.01-5.81.01-8.71.02.01 3.46 0 6.92-.01 10.39-.97 0-2.92-.01-3.89-.01.03-5.98.02-11.96 0-17.95z"/><path opacity=".97" d="M73.03 40.26c2.76-.01 5.53-.01 8.29-.05.03.82.1 2.47.13 3.3-2.84.01-5.69.01-8.53-.02.03-.81.08-2.42.11-3.23zM20.37 52.17h3.73c.09 7.56.04 15.12.05 22.68-1.26 0-2.52-.01-3.78-.01.01-7.56.01-15.11 0-22.67zM25.79 52.15c3.83.01 7.65 0 11.48.01.01 7.57.01 15.14 0 22.7-1.3-.01-2.6-.02-3.89-.02.01-6.44 0-12.88.01-19.31-2.5-.01-5 0-7.5.04-.02-1.14-.05-2.28-.1-3.42zM44.93 66.94c-1.79-6.31 1.79-14.44 8.85-15.13.13.78.38 2.35.5 3.13-5.92 1.94-7.65 10.04-3.76 14.64 1.3 1.69 3.46 2.14 5.38 2.76l.2 3.34c-5.18.03-10.27-3.48-11.17-8.74zM56.06 51.43c3.01.22 6.2.89 8.27 3.27 6.31 6.36 3.33 19.48-6.11 20.85l-.56-3.35c5.87-1.76 7.9-9.5 4.38-14.25-1.28-2.03-3.71-2.6-5.85-3.23-.03-.82-.09-2.46-.13-3.29zM74.94 52.2c3.88.22 8.17-.9 11.72 1.08 4.13 2.36 4.05 9.07.07 11.51-1.95 1.26-4.34 1.25-6.57 1.18.08-.68.25-2.06.33-2.74 1.58-.67 3.82-.28 4.88-1.87.8-1.99.78-5.31-1.8-5.88-2.86-.43-5.78-.2-8.66-.26.01-.75.03-2.26.03-3.02zM92.7 52.16c5.93-.01 11.85.01 17.77-.01.03.83.08 2.51.1 3.35-5.98.05-11.95.04-17.93 0 .02-.83.05-2.51.06-3.34z"/><path opacity=".97" d="M75.06 56.89c1.25.01 2.51.02 3.76.04.04 5.97.01 11.95.03 17.92-1.31-.01-2.62-.03-3.93-.04.06-5.98-.14-11.95.14-17.92zM99.64 57.13l3.9.03c-.01 5.89-.01 11.78 0 17.68-1.3.01-2.6.01-3.9.02-.01-5.91-.01-11.82 0-17.73z"/></g></svg>