<svg xmlns="http://www.w3.org/2000/svg" width="800.95" height="265.712" viewBox="0 0 21191.8 7030.3" shape-rendering="geometricPrecision" text-rendering="geometricPrecision" image-rendering="optimizeQuality" fill-rule="evenodd" clip-rule="evenodd"><defs><style>.str0,.str1,.str2,.str3,.str4{stroke:#000;stroke-width:.02;stroke-miterlimit:22.9256}.str0,.str1,.str3,.str4{stroke-width:.03}.str0,.str1,.str4{stroke-width:.53}.str1,.str4{stroke:#2b2a29}.str1{stroke:#000;stroke-width:76.2}.fil2{fill:none}.fil3{fill:#000}.fil4{fill:#2b2a29}.fil1{fill:#e35f21}.fil5{fill:#fefefe;fill-rule:nonzero}</style></defs><g id="Слой_x0020_1"><g id="_2161108447584"><path class="str0" fill="#1f1b20" d="M-4.97 5.91h21279.01v7038.57H-4.97z"/><ellipse class="fil1 str0" cx="6556.66" cy="3899.62" rx="1557.41" ry="1587.48"/><ellipse class="fil2 str0" cx="6556.66" cy="3899.62" rx="1461.21" ry="1477.67"/><ellipse class="fil2 str0" cx="6554.39" cy="3896.14" rx="1426.49" ry="1430.89"/><path class="fil2 str1" d="M4999.24 3899.62h3114.83M5476.84 2755.79L7636.46 5043.6M6556.66 2312.13v3174.65M7641.65 2760.93l-2170 2277.54"/><ellipse class="fil2 str0" cx="6300.16" cy="4540.56" rx="143.25" ry="149.32"/><ellipse class="fil2 str0" cx="5955.42" cy="4904.37" rx="143.25" ry="149.32"/><ellipse class="fil2 str0" cx="6316.06" cy="5067.24" rx="143.25" ry="149.32"/><ellipse class="fil2 str2" transform="matrix(.11404 .10617 -.1037 .11676 5913.13 4177.25)" rx="928.91" ry="946.11"/><ellipse class="fil2 str2" transform="matrix(.11404 .10617 -.1037 .11676 5419.04 4209.05)" rx="928.91" ry="946.11"/><ellipse class="fil2 str2" transform="matrix(.11404 .10617 -.1037 .11676 5578.82 4577.95)" rx="928.91" ry="946.11"/><ellipse class="fil2 str3" transform="matrix(.01682 -.15687 .15322 .01722 7213.59 4229.35)" rx="928.91" ry="946.11"/><ellipse class="fil2 str3" transform="matrix(.01682 -.15687 .15322 .01722 7529.18 4619.95)" rx="928.91" ry="946.11"/><ellipse class="fil2 str3" transform="matrix(.01682 -.15687 .15322 .01722 7726.67 4270.55)" rx="928.91" ry="946.11"/><ellipse class="fil2 str2" transform="matrix(.10459 -.11592 .11322 .10708 6750.35 4562.45)" rx="928.91" ry="946.11"/><ellipse class="fil2 str2" transform="matrix(.10459 -.11592 .11322 .10708 6777.46 5068.55)" rx="928.91" ry="946.11"/><ellipse class="fil2 str2" transform="matrix(.10459 -.11592 .11322 .10708 7139.03 4907.95)" rx="928.91" ry="946.11"/><ellipse class="fil2 str0" cx="6840.39" cy="3232.54" rx="143.25" ry="149.32"/><ellipse class="fil2 str0" cx="7185.13" cy="2868.74" rx="143.25" ry="149.32"/><ellipse class="fil2 str0" cx="6824.49" cy="2705.86" rx="143.25" ry="149.32"/><ellipse class="fil2 str2" transform="matrix(-.12866 -.0869 .08488 -.13173 7260.42 3610.75)" rx="928.91" ry="946.11"/><ellipse class="fil2 str2" transform="matrix(-.12866 -.0869 .08488 -.13173 7743.82 3501.35)" rx="928.91" ry="946.11"/><ellipse class="fil2 str2" transform="matrix(-.12866 -.0869 .08488 -.13173 7530.41 3162.15)" rx="928.91" ry="946.11"/><ellipse class="fil2 str3" transform="matrix(-.01682 .15687 -.15322 -.01722 5889.62 3593.05)" rx="928.91" ry="946.11"/><ellipse class="fil2 str3" transform="matrix(-.01682 .15687 -.15322 -.01722 5574.03 3202.45)" rx="928.91" ry="946.11"/><ellipse class="fil2 str3" transform="matrix(-.01682 .15687 -.15322 -.01722 5376.54 3551.65)" rx="928.91" ry="946.11"/><ellipse class="fil2 str2" transform="matrix(-.11964 .0995 -.09719 -.12249 6325.85 3220.45)" rx="928.91" ry="946.11"/><ellipse class="fil2 str2" transform="matrix(-.11964 .0995 -.09719 -.12249 6369.35 2715.45)" rx="928.91" ry="946.11"/><ellipse class="fil2 str2" transform="matrix(-.11964 .0995 -.09719 -.12249 5989.14 2821.95)" rx="928.91" ry="946.11"/><path class="fil3 str4" d="M5572.88 2857.66c255.85-243.25 601.23-392.4 981.51-392.4h2.27v-43.32c-391.31 0-746.75 155.6-1009.09 408.93l25.31 26.79zM5572.88 2857.66l-25.31-26.79c-278.55 269.06-452.13 648.41-452.13 1068.75h32.44v-3.48c0-408.93 170.99-777.7 445-1038.48z"/><path class="fil3 str4" d="M5571.74 4933.46c-272.71-259.95-442.89-626.89-443.87-1033.85h-32.43c0 418.05 171.46 795.41 447.26 1064.12l29.04-30.27zM6554.39 5327.03c-380.77 0-726.8-149.66-982.65-393.57l-29.03 30.27c262.83 256.14 620.21 413.73 1013.95 413.73v-50.43h-2.28.01z"/><path class="fil3 str4" d="M7534.58 4935.79c-255.02 242.08-599.27 390.58-977.92 391.24v50.43c391.3 0 746.59-155.6 1008.9-408.93l-30.98-32.74z"/><path class="fil3 str4" d="M7980.88 3899.62c-.97 408.11-172.31 776.05-446.3 1036.17l30.98 32.75c278.72-269.05 452.32-648.39 452.32-1068.92h-37z"/><path class="fil3 str4" d="M7543.02 2864.45c269.96 260.45 437.86 626.39 437.86 1031.7v3.48h37c0-417.88-171.65-795.24-447.29-1064.11l-27.57 28.93zM6556.66 2465.26c382.87.5 730.35 152.47 986.36 399.18l27.58-28.95c-262.81-255.97-620.2-413.55-1013.94-413.55v43.32z"/><path class="fil1 str4" d="M5676.87 4467.47c-58.4-54.57-149.74-49.29-203.92 11.74-54.19 61.03-50.77 154.79 7.78 209.19 58.42 54.41 149.91 49.11 204.1-11.9 54.18-61.03 50.61-154.62-7.95-209.02l-.01-.01z"/><path class="fil4 str4" d="M5676.87 4467.47c-58.4-54.57-149.74-49.29-203.92 11.74-54.19 61.03-50.77 154.79 7.78 209.19 58.42 54.41 149.91 49.11 204.1-11.9 54.18-61.03 50.61-154.62-7.95-209.02l-.01-.01zM5320.94 4319.48c58.56 54.42 149.9 49.11 204.08-11.91 54.19-61.04 50.63-154.62-7.96-209.01-58.39-54.57-149.73-49.29-203.91 11.74-54.18 61.02-50.77 154.78 7.8 209.18h-.01zM5807.14 4078.7c-54.18 61.01-50.62 154.62 7.95 209.02 58.4 54.56 149.74 49.11 203.92-11.91 54.2-60.86 50.78-154.62-7.78-209.02-58.57-54.41-149.9-49.12-204.09 11.91zM5360.85 3697.39c80.14 8.92 152.02-48.97 160.61-129.5 8.75-80.53-49.16-152.96-129.29-162.06-80.14-8.92-152.01 48.96-160.61 129.49-8.62 80.53 49.3 152.97 129.29 162.07zM5428.98 3186.07c-8.59 80.53 49.33 152.96 129.46 162.07 79.99 8.93 152.02-48.96 160.62-129.49 8.6-80.53-49.32-152.96-129.47-162.05-79.97-8.94-151.84 48.95-160.61 129.47zM5905.31 3447.18c-80.14-9.09-152.03 48.95-160.62 129.49-8.6 80.36 49.31 152.96 129.28 161.88 80.14 9.09 152.01-48.94 160.62-129.3 8.6-80.52-49.31-153.12-129.28-162.07zM6214.66 3312.92c50.78 63.99 141.8 74.4 203.12 23.32 61.33-50.94 69.92-144.21 19.14-208.2-50.78-64.16-141.62-74.57-203.1-23.48-61.33 50.93-69.94 144.19-19.16 208.36zM6081.15 2937.7c61.34-50.93 69.93-144.19 19.14-208.37-50.77-63.99-141.78-74.4-203.1-23.31-61.33 50.93-69.93 144.2-19.16 208.19 50.79 64.17 141.63 74.58 203.12 23.48v.01zM6258.15 2807.89c50.93 64 141.79 74.57 203.1 23.48 61.5-51.11 70.09-144.37 19.32-208.35-50.78-64-141.8-74.42-203.12-23.5-61.49 51.11-70.07 144.37-19.3 208.37zM7185.13 2719.43c-79.17 0-143.23 66.8-143.23 149.32 0 82.35 64.06 149.32 143.23 149.32 79 0 143.1-66.96 143.1-149.32 0-82.51-64.1-149.32-143.1-149.32zM6824.5 2855.18c79.01 0 143.09-66.97 143.09-149.32 0-82.51-64.08-149.32-143.09-149.32-79.17 0-143.26 66.8-143.26 149.32 0 82.35 64.09 149.32 143.26 149.32zM6983.48 3232.54c0-82.52-64.08-149.32-143.08-149.32-79.17 0-143.25 66.8-143.25 149.32 0 82.34 64.08 149.33 143.25 149.33 79 0 143.08-66.98 143.08-149.33z"/><path class="fil1 str4" d="M7229.26 4083.5c-80.14-8.94-152 48.95-160.61 129.47-8.59 80.54 49.32 152.97 129.3 162.06 80.14 8.93 152.01-48.95 160.6-129.49 8.6-80.52-49.31-152.95-129.29-162.04z"/><path class="fil4 str4" d="M7180.1 3735.25c66.03 44.65 155.42 24.97 199.87-43.82 44.3-68.79 26.77-160.73-39.27-205.38-66.02-44.66-155.41-24.98-199.86 43.82-44.28 68.96-26.78 160.91 39.26 205.38zM7229.26 4083.5c-80.14-8.94-152 48.95-160.61 129.47-8.59 80.54 49.32 152.97 129.3 162.06 80.14 8.93 152.01-48.95 160.6-129.49 8.6-80.52-49.31-152.95-129.29-162.04zM7544.81 4474.08c-80.14-8.93-152.01 48.95-160.61 129.48-8.6 80.37 49.3 152.96 129.3 161.89 80.11 9.1 152-48.94 160.6-129.3 8.77-80.52-49.16-153.12-129.29-162.06v-.01zM7581.62 4254.32c-8.58 80.37 49.34 152.96 129.48 161.9 79.98 9.09 152-48.97 160.6-129.31 8.6-80.54-49.32-153.14-129.46-162.07-79.97-9.09-151.84 48.96-160.62 129.48zM7663.56 3625.93c66.04 44.67 155.4 24.98 199.86-43.82 44.3-68.94 26.77-160.9-39.26-205.36-66.03-44.65-155.57-24.97-199.87 43.82-44.29 68.95-26.76 160.9 39.27 205.36zM7450.05 3286.61c66.04 44.65 155.59 24.97 199.87-43.82 44.3-68.79 26.78-160.73-39.25-205.36-66.04-44.67-155.42-24.99-199.7 43.98-44.45 68.79-26.94 160.74 39.08 205.21v-.01zM6847.54 4454.73c-59.21-56.05-150.71-53.07-204.25 6.28-53.7 59.54-49.32 153.14 9.9 209.01 59.22 56.07 150.7 53.1 204.25-6.26 53.7-59.54 49.32-153.13-9.9-209.03zM6443.26 4540.56c0-82.53-64.08-149.33-143.09-149.33-79.17 0-143.25 66.79-143.25 149.33 0 82.51 64.08 149.32 143.25 149.32 79.01 0 143.09-66.8 143.09-149.32zM6316.06 4917.92c-79.17 0-143.24 66.97-143.24 149.32 0 82.52 64.07 149.33 143.24 149.33 79 0 143.09-66.81 143.09-149.33 0-82.33-64.09-149.32-143.09-149.32zM5955.42 5053.7c79 0 143.09-66.8 143.09-149.33 0-82.52-64.09-149.33-143.09-149.33-79.17 0-143.25 66.8-143.25 149.33 0 82.52 64.08 149.33 143.25 149.33zM6670.38 4967.2c-53.7 59.54-49.32 152.97 9.89 209.02 59.22 55.89 150.72 53.08 204.24-6.45 53.71-59.37 49.32-152.96-9.89-209.02-59.21-55.89-150.55-53.08-204.24 6.45zM7031.83 4806.47c-53.55 59.53-49.16 153.11 10.06 209.01 59.21 56.05 150.54 53.1 204.23-6.28 53.71-59.54 49.17-153.11-9.89-209.02-59.22-56.06-150.71-53.08-204.4 6.29z"/><g id="_1880097528944"><path class="fil5" d="M8575.76 3821.43c0-92.94 19.72-175.83 59.18-248.66 39.45-72.84 94.47-129.58 165.04-170.25 70.58-40.66 150.58-60.99 240.01-60.99 109.59 0 203.4 29.49 281.42 88.47 78.04 58.99 130.2 139.42 156.5 241.29h-247.23c-18.42-39.32-44.49-69.26-78.25-89.81-33.75-20.55-72.11-30.83-115.07-30.83-69.26 0-125.38 24.57-168.33 73.73-42.96 49.15-64.45 114.83-64.45 197.05 0 82.21 21.49 147.9 64.45 197.05 42.95 49.15 99.07 73.73 168.33 73.73 42.96 0 81.32-10.28 115.07-30.83 33.76-20.56 59.83-50.5 78.25-89.82h247.23c-26.3 101.88-78.46 182.09-156.5 240.62-78.02 58.54-171.83 87.8-281.42 87.8-89.43 0-169.43-20.33-240.01-60.99-70.57-40.66-125.59-97.19-165.04-169.57-39.46-72.39-59.18-155.05-59.18-247.99z"/><path id="1" class="fil5" d="M9840.87 3669.95c26.31-41.11 59.19-73.5 98.64-97.18 39.46-23.69 83.29-35.53 131.51-35.53v242.63h-61.81c-56.11 0-98.19 12.29-126.25 36.87-28.06 24.57-42.09 67.69-42.09 129.35v347.19H9616v-747.99h224.87v124.66z"/><path id="2" class="fil5" d="M10870.6 3907.22c0 21.45-1.31 43.79-3.94 67.02h-508.95c3.51 46.47 18.19 82 44.05 106.57 25.87 24.58 57.65 36.87 95.35 36.87 56.11 0 95.13-24.13 117.04-72.39h239.35c-12.27 49.15-34.4 93.39-66.41 132.71-32 39.32-72.11 70.15-120.33 92.49-48.22 22.34-102.14 33.51-161.76 33.51-71.89 0-135.9-15.64-192-46.91-56.11-31.28-99.95-75.96-131.51-134.05-31.56-58.09-47.35-126.01-47.35-203.76 0-77.75 15.57-145.66 46.69-203.75 31.13-58.09 74.75-102.77 130.85-134.05 56.11-31.28 120.56-46.92 193.32-46.92 71.02 0 134.14 15.19 189.37 45.58 55.24 30.38 98.42 73.73 129.54 130.03 31.13 56.3 46.69 121.98 46.69 197.05zm-230.14-60.32c0-39.32-13.15-70.6-39.45-93.84-26.31-23.23-59.18-34.85-98.64-34.85-37.7 0-69.48 11.17-95.34 33.51-25.87 22.34-41.87 54.07-48 95.18h281.43z"/><path id="3" class="fil5" d="M10944.24 3917.94c0-76.85 14.25-144.32 42.74-202.41 28.49-58.09 67.29-102.77 116.39-134.05 49.1-31.28 103.89-46.92 164.38-46.92 48.23 0 92.28 10.28 132.17 30.83 39.9 20.56 71.24 48.26 94.04 83.11v-347.18h224.87v991.96h-224.87v-107.24c-21.05 35.75-51.08 64.34-90.1 85.79-39 21.45-84.38 32.17-136.11 32.17-60.49 0-115.28-15.86-164.38-47.58-49.1-31.73-87.9-76.86-116.39-135.39-28.49-58.54-42.74-126.23-42.74-203.09zm549.72 1.34c0-57.19-15.56-102.32-46.69-135.39-31.12-33.06-69.04-49.59-113.76-49.59-44.71 0-82.63 16.3-113.75 48.92-31.13 32.62-46.69 77.53-46.69 134.72 0 57.2 15.56 102.55 46.69 136.06 31.12 33.51 69.04 50.27 113.75 50.27 44.72 0 82.64-16.53 113.76-49.6 31.13-33.06 46.69-78.19 46.69-135.39z"/><path id="4" class="fil5" d="M12215.93 4304c-71.89 0-136.54-15.64-193.97-46.91-57.42-31.28-102.58-75.96-135.45-134.05-32.88-58.09-49.32-126.01-49.32-203.76 0-76.85 16.66-144.55 49.97-203.08 33.32-58.54 78.91-103.44 136.77-134.72 57.86-31.28 122.75-46.92 194.64-46.92 71.9 0 136.77 15.64 194.64 46.92 57.86 31.28 103.45 76.18 136.76 134.72 33.32 58.53 49.98 126.23 49.98 203.08 0 76.86-16.88 144.55-50.63 203.09-33.76 58.53-79.78 103.44-138.09 134.72-58.3 31.27-123.4 46.91-195.3 46.91zm0-198.39c42.97 0 79.57-16.08 109.82-48.26 30.25-32.17 45.37-78.19 45.37-138.07 0-59.87-14.69-105.9-44.05-138.07-29.37-32.17-65.54-48.25-108.5-48.25-43.84 0-80.22 15.86-109.15 47.58-28.94 31.73-43.4 77.97-43.4 138.74 0 59.88 14.24 105.9 42.73 138.07 28.5 32.18 64.23 48.26 107.18 48.26z"/></g><g id="_1880097530048"><path class="fil5" d="M13702.12 3655.21c0 54.51-12.28 104.33-36.82 149.46-24.55 45.13-62.25 81.55-113.1 109.25-50.86 27.7-113.98 41.56-189.37 41.56h-139.41v337.8h-224.88v-941.02h364.29c73.64 0 135.88 12.95 186.74 38.87 50.85 25.92 88.98 61.66 114.41 107.24 25.42 45.58 38.14 97.86 38.14 156.84zm-356.39 117.96c42.96 0 74.96-10.28 96-30.83 21.04-20.56 31.57-49.6 31.57-87.13 0-37.54-10.53-66.58-31.57-87.14-21.04-20.55-53.04-30.83-96-30.83h-122.31v235.93h122.31z"/><path id="1" class="fil5" d="M13932.26 3467.54c-39.44 0-71.66-11.84-96.65-35.52-24.99-23.69-37.49-52.95-37.49-87.81 0-35.74 12.5-65.46 37.49-89.14 24.99-23.68 57.21-35.52 96.65-35.52 38.58 0 70.36 11.84 95.35 35.52 24.99 23.68 37.48 53.4 37.48 89.14 0 34.86-12.49 64.12-37.48 87.81-24.99 23.68-56.77 35.52-95.35 35.52zm111.79 77.75v747.99h-224.88v-747.99h224.88z"/><path id="2" class="fil5" d="M14417.53 4104.27h318.26v189.01h-569.44v-182.31l305.1-376.67h-302.47v-189.01h560.23v182.3z"/><path id="3" class="fil5" d="M15069.82 4104.27h318.25v189.01h-569.43v-182.31l305.1-376.67h-302.47v-189.01h560.22v182.3z"/><path id="4" class="fil5" d="M15466.97 3917.94c0-76.85 14.25-144.32 42.74-202.41 28.49-58.09 67.3-102.77 116.39-134.05 49.1-31.28 103.89-46.92 164.38-46.92 51.73 0 97.11 10.73 136.12 32.17 39.01 21.45 69.04 49.6 90.09 84.46v-105.9h224.87v747.99h-224.87v-105.9c-21.92 34.85-52.39 63-91.41 84.45-39.01 21.45-84.38 32.17-136.11 32.17-59.62 0-113.97-15.86-163.07-47.58-49.09-31.73-87.9-76.86-116.39-135.39-28.49-58.54-42.74-126.23-42.74-203.09zm549.72 1.34c0-57.19-15.56-102.32-46.69-135.39-31.12-33.06-69.04-49.59-113.76-49.59-44.71 0-82.63 16.3-113.75 48.92-31.13 32.62-46.69 77.53-46.69 134.72 0 57.2 15.56 102.55 46.69 136.06 31.12 33.51 69.04 50.27 113.75 50.27 44.72 0 82.64-16.53 113.76-49.6 31.13-33.06 46.69-78.19 46.69-135.39z"/></g></g></g></svg>